{
  "source": "C:\\Users\\Peter\\Desktop\\stuff\\MIUN\\quantitative_research\\video_compression\\videos\\HEVC_CLASS_B\\BQTerrace_1920x1080_60.y4m",
  "output": "C:\\Users\\Peter\\Desktop\\stuff\\MIUN\\quantitative_research\\video_compression\\compressed_videos\\HEVC_CLASS_B\\h264\\8\\BQTerrace_1920x1080_60_h264.mp4",
  "codec": "h264",
  "ok": "Input #0, yuv4mpegpipe, from 'C:\\Users\\Peter\\Desktop\\stuff\\MIUN\\quantitative_research\\video_compression\\videos\\HEVC_CLASS_B\\BQTerrace_1920x1080_60.y4m':\n  Duration: 00:00:10.00, start: 0.000000, bitrate: 1492994 kb/s\n  Stream #0:0: Video: rawvideo (I420 / 0x30323449), yuv420p(progressive), 1920x1080, 60 fps, 60 tbr, 60 tbn\n[out#0/mp4 @ 0000020c7086a640] Codec AVOption b:a (set bitrate (in bits/s)) has not been used for any stream. The most likely reason is either wrong type (e.g. a video option with no video streams) or that it is a private option of some decoder which was not actually used for any stream.\nStream mapping:\n  Stream #0:0 -> #0:0 (rawvideo (native) -> h264 (libx264))\nPress [q] to stop, [?] for help\n[libx264 @ 0000020c7086cac0] using cpu capabilities: MMX2 SSE2Fast SSSE3 SSE4.2 AVX FMA3 BMI2 AVX2\n[libx264 @ 0000020c7086cac0] profile High, level 5.0, 4:2:0, 8-bit\n[libx264 @ 0000020c7086cac0] 264 - core 165 r3222 b35605a - H.264/MPEG-4 AVC codec - Copyleft 2003-2025 - http://www.videolan.org/x264.html - options: cabac=1 ref=5 deblock=1:0:0 analyse=0x3:0x113 me=hex subme=8 psy=1 psy_rd=1.00:0.00 mixed_ref=1 me_range=16 chroma_me=1 trellis=2 8x8dct=1 cqm=0 deadzone=21,11 fast_pskip=1 chroma_qp_offset=-2 threads=18 lookahead_threads=3 sliced_threads=0 nr=0 decimate=1 interlaced=0 bluray_compat=0 constrained_intra=0 bframes=3 b_pyramid=2 b_adapt=1 b_bias=0 direct=3 weightb=1 open_gop=0 weightp=2 keyint=250 keyint_min=25 scenecut=40 intra_refresh=0 rc_lookahead=50 rc=cbr mbtree=1 bitrate=8000 ratetol=1.0 qcomp=0.60 qpmin=0 qpmax=69 qpstep=4 vbv_maxrate=8000 vbv_bufsize=8000 nal_hrd=none filler=0 ip_ratio=1.40 aq=1:1.00\nOutput #0, mp4, to 'C:\\Users\\Peter\\Desktop\\stuff\\MIUN\\quantitative_research\\video_compression\\compressed_videos\\HEVC_CLASS_B\\h264\\8\\BQTerrace_1920x1080_60_h264.mp4':\n  Metadata:\n    encoder         : Lavf62.3.100\n  Stream #0:0: Video: h264 (avc1 / 0x31637661), yuv420p(tv, progressive), 1920x1080, q=2-31, 8000 kb/s, 60 fps, 15360 tbn\n    Metadata:\n      encoder         : Lavc62.11.100 libx264\n    Side data:\n      cpb: bitrate max/min/avg: 8000000/0/8000000 buffer size: 8000000 vbv_delay: N/A\nframe=    0 fps=0.0 q=0.0 size=       0KiB time=N/A bitrate=N/A speed=N/A elapsed=0:00:00.51    \nframe=    5 fps=4.8 q=35.0 size=       0KiB time=00:00:00.05 bitrate=   7.7kbits/s speed=0.0484x elapsed=0:00:01.03    \nframe=   37 fps= 24 q=32.0 size=     256KiB time=00:00:00.58 bitrate=3595.8kbits/s speed=0.376x elapsed=0:00:01.55    \nframe=   57 fps= 27 q=32.0 size=     512KiB time=00:00:00.91 bitrate=4576.0kbits/s speed=0.441x elapsed=0:00:02.07    \nframe=   81 fps= 31 q=32.0 size=    1024KiB time=00:00:01.28 bitrate=6536.9kbits/s speed=0.489x elapsed=0:00:02.62    \nframe=  101 fps= 32 q=32.0 size=    1280KiB time=00:00:01.65 bitrate=6355.2kbits/s speed=0.522x elapsed=0:00:03.16    \nframe=  125 fps= 34 q=32.0 size=    1792KiB time=00:00:02.01 bitrate=7279.6kbits/s speed=0.545x elapsed=0:00:03.69    \nframe=  149 fps= 35 q=31.0 size=    2048KiB time=00:00:02.45 bitrate=6848.0kbits/s speed=0.578x elapsed=0:00:04.23    \nframe=  173 fps= 36 q=31.0 size=    2304KiB time=00:00:02.85 bitrate=6622.7kbits/s speed=0.597x elapsed=0:00:04.77    \nframe=  193 fps= 37 q=31.0 size=    2560KiB time=00:00:03.18 bitrate=6588.0kbits/s speed=0.602x elapsed=0:00:05.28    \nframe=  217 fps= 37 q=31.0 size=    2816KiB time=00:00:03.58 bitrate=6437.9kbits/s speed=0.617x elapsed=0:00:05.81    \nframe=  238 fps= 38 q=31.0 size=    3072KiB time=00:00:03.93 bitrate=6398.2kbits/s speed=0.622x elapsed=0:00:06.32    \nframe=  261 fps= 38 q=31.0 size=    3584KiB time=00:00:04.23 bitrate=6935.6kbits/s speed=0.617x elapsed=0:00:06.85    \nframe=  284 fps= 38 q=31.0 size=    3840KiB time=00:00:04.68 bitrate=6716.9kbits/s speed=0.631x elapsed=0:00:07.42    \nframe=  314 fps= 40 q=31.0 size=    4096KiB time=00:00:05.18 bitrate=6473.6kbits/s speed=0.653x elapsed=0:00:07.94    \nframe=  338 fps= 40 q=32.0 size=    4352KiB time=00:00:05.60 bitrate=6366.4kbits/s speed=0.662x elapsed=0:00:08.46    \nframe=  358 fps= 40 q=31.0 size=    4608KiB time=00:00:05.90 bitrate=6398.2kbits/s speed=0.657x elapsed=0:00:08.97    \nframe=  383 fps= 40 q=31.0 size=    5120KiB time=00:00:06.35 bitrate=6605.3kbits/s speed=0.667x elapsed=0:00:09.51    \nframe=  409 fps= 41 q=31.0 size=    5376KiB time=00:00:06.78 bitrate=6492.5kbits/s speed=0.675x elapsed=0:00:10.04    \nframe=  433 fps= 41 q=31.0 size=    5632KiB time=00:00:07.16 bitrate=6437.8kbits/s speed=0.678x elapsed=0:00:10.56    \nframe=  455 fps= 41 q=32.0 size=    5888KiB time=00:00:07.55 bitrate=6388.7kbits/s speed=0.681x elapsed=0:00:11.09    \nframe=  483 fps= 42 q=32.0 size=    6400KiB time=00:00:08.01 bitrate=6540.0kbits/s speed=0.691x elapsed=0:00:11.60    \nframe=  500 fps= 41 q=33.0 size=    6656KiB time=00:00:08.30 bitrate=6569.4kbits/s speed=0.684x elapsed=0:00:12.13    \nframe=  526 fps= 42 q=32.0 size=    6912KiB time=00:00:08.73 bitrate=6483.6kbits/s speed=0.69x elapsed=0:00:12.65    \nframe=  557 fps= 42 q=31.0 size=    7424KiB time=00:00:09.25 bitrate=6574.9kbits/s speed=0.702x elapsed=0:00:13.17    \nframe=  585 fps= 43 q=-1.0 size=    7680KiB time=00:00:09.71 bitrate=6475.0kbits/s speed=0.71x elapsed=0:00:13.68    \n[mp4 @ 0000020c7086b740] Starting second pass: moving the moov atom to the beginning of the file\n[out#0/mp4 @ 0000020c7086a640] video:7993KiB audio:0KiB subtitle:0KiB other streams:0KiB global headers:0KiB muxing overhead: 0.099635%\nframe=  600 fps= 43 q=-1.0 Lsize=    8001KiB time=00:00:09.96 bitrate=6576.3kbits/s speed=0.716x elapsed=0:00:13.91    \n[libx264 @ 0000020c7086cac0] frame I:3     Avg QP:28.02  size:210596\n[libx264 @ 0000020c7086cac0] frame P:151   Avg QP:29.37  size: 35993\n[libx264 @ 0000020c7086cac0] frame B:446   Avg QP:34.95  size:  4748\n[libx264 @ 0000020c7086cac0] consecutive B-frames:  0.8%  0.0%  0.5% 98.7%\n[libx264 @ 0000020c7086cac0] mb I  I16..4: 17.6% 61.9% 20.4%\n[libx264 @ 0000020c7086cac0] mb P  I16..4:  0.1%  1.0%  0.1%  P16..4: 40.6% 11.7%  9.5%  0.0%  0.0%    skip:37.0%\n[libx264 @ 0000020c7086cac0] mb B  I16..4:  0.0%  0.0%  0.0%  B16..8: 45.6%  1.2%  0.2%  direct: 0.6%  skip:52.3%  L0:45.7% L1:53.0% BI: 1.3%\n[libx264 @ 0000020c7086cac0] 8x8 transform intra:69.0% inter:56.9%\n[libx264 @ 0000020c7086cac0] direct mvs  spatial:97.8% temporal:2.2%\n[libx264 @ 0000020c7086cac0] coded y,uvDC,uvAC intra: 80.8% 51.6% 29.0% inter: 6.2% 2.7% 0.2%\n[libx264 @ 0000020c7086cac0] i16 v,h,dc,p: 43% 15%  5% 36%\n[libx264 @ 0000020c7086cac0] i8 v,h,dc,ddl,ddr,vr,hd,vl,hu: 14%  9%  8% 10% 11%  9% 11%  8% 20%\n[libx264 @ 0000020c7086cac0] i4 v,h,dc,ddl,ddr,vr,hd,vl,hu: 14%  6%  4% 11% 10% 10% 12% 10% 24%\n[libx264 @ 0000020c7086cac0] i8c dc,h,v,p: 36% 43% 14%  7%\n[libx264 @ 0000020c7086cac0] Weighted P-Frames: Y:9.9% UV:4.6%\n[libx264 @ 0000020c7086cac0] ref P L0: 50.8% 21.4% 15.5%  6.6%  5.4%  0.3%\n[libx264 @ 0000020c7086cac0] ref B L0: 81.1% 12.9%  5.0%  1.0%\n[libx264 @ 0000020c7086cac0] ref B L1: 93.6%  6.4%\n[libx264 @ 0000020c7086cac0] kb/s:6547.28\n",
  "seconds": 14.560130834579468,
  "probe_out": {}
}